<?xml version="1.0" standalone="no"?>
<!DOCTYPE svg PUBLIC "-//W3C//DTD SVG 20010904//EN"
 "http://www.w3.org/TR/2001/REC-SVG-20010904/DTD/svg10.dtd">
<svg version="1.0" xmlns="http://www.w3.org/2000/svg"
 width="1563.000000pt" height="1563.000000pt" viewBox="0 0 1563.000000 1563.000000"
 preserveAspectRatio="xMidYMid meet">

<g transform="translate(0.000000,1563.000000) scale(0.100000,-0.100000)"
fill="#000000" stroke="none">
<path d="M3990 7815 l0 -1905 950 0 950 0 0 1905 0 1905 -950 0 -950 0 0
-1905z m1109 722 c35 -15 112 -54 171 -87 119 -67 179 -82 244 -60 46 15 66
45 75 112 6 50 8 53 37 56 l31 3 7 -68 c8 -82 -7 -206 -35 -289 -59 -181 -214
-284 -406 -272 -135 9 -232 75 -393 268 -153 184 -216 226 -299 201 -161 -48
-154 -319 19 -677 135 -280 359 -549 524 -630 71 -35 90 -39 168 -42 80 -4 93
-1 150 26 79 37 145 95 205 181 62 88 58 84 82 72 29 -16 27 -29 -20 -101
-111 -171 -289 -300 -506 -367 -78 -23 -105 -26 -238 -27 -175 0 -231 11 -372
79 -536 259 -658 976 -238 1400 178 181 366 258 610 251 103 -2 129 -7 184
-29z"/>
<path d="M10040 7815 l0 -1905 995 0 995 0 0 1905 0 1905 -995 0 -995 0 0
-1905z m974 725 c64 -10 150 -49 286 -130 72 -43 92 -50 137 -50 75 0 109 32
125 118 11 58 13 62 39 62 35 0 39 -13 39 -123 -1 -178 -47 -312 -136 -397
-85 -80 -126 -95 -269 -95 -115 0 -122 1 -174 30 -66 37 -147 115 -228 220
-33 44 -81 99 -106 123 -39 35 -53 42 -86 42 -54 0 -111 -48 -111 -92 0 -110
174 -221 527 -337 286 -94 421 -165 519 -274 162 -180 145 -444 -42 -631 -119
-118 -261 -172 -434 -163 -111 5 -163 24 -331 117 -124 69 -180 82 -242 56
-44 -18 -67 -62 -67 -126 0 -39 -1 -40 -34 -40 l-34 0 -6 73 c-13 142 22 296
90 394 70 102 153 144 294 151 80 3 104 1 152 -17 85 -33 157 -92 274 -225
112 -129 180 -186 221 -186 64 0 124 70 104 122 -40 106 -223 215 -539 322
-296 100 -364 132 -457 211 -152 130 -189 369 -89 568 36 70 145 177 220 215
122 62 238 82 358 62z"/>
<path d="M7514 4941 c-27 -22 -166 -160 -309 -306 l-259 -268 -108 5 c-115 6
-132 0 -140 -47 -3 -23 19 -25 132 -10 l65 8 -74 -69 c-456 -424 -750 -581
-908 -484 -45 27 -64 70 -64 143 0 337 376 808 647 811 67 1 86 -9 111 -58 33
-64 13 -157 -58 -267 -31 -49 -34 -59 -20 -59 22 0 77 70 109 138 43 90 54
187 28 228 -52 79 -231 72 -394 -16 -103 -56 -174 -113 -283 -228 -149 -157
-227 -312 -236 -473 -6 -100 5 -145 50 -195 48 -56 100 -77 197 -82 73 -4 97
0 165 23 176 59 418 225 702 483 l112 102 92 0 c69 0 90 -3 86 -12 -93 -227
-124 -344 -113 -426 8 -59 20 -72 68 -72 44 0 84 17 112 49 24 27 12 27 -21 1
-52 -41 -83 -20 -83 55 0 62 33 163 98 299 l49 102 108 12 c148 16 159 32 22
32 l-107 0 87 171 c65 126 103 189 145 235 46 51 58 72 68 118 21 103 1 118
-76 57z m-133 -243 c-12 -18 -61 -99 -109 -180 l-87 -147 -90 0 -89 -1 109
102 c61 56 146 137 190 180 86 83 110 98 76 46z"/>
<path d="M8870 4653 c-63 -66 -160 -206 -279 -406 -72 -119 -93 -147 -159
-203 -90 -77 -181 -130 -237 -139 -33 -6 -45 -3 -69 16 -26 20 -28 27 -24 70
6 60 55 145 123 215 53 53 144 117 183 129 l22 6 -24 -46 c-30 -55 -25 -75 18
-75 44 0 77 36 83 93 7 61 -18 87 -85 87 -95 0 -192 -73 -375 -282 -118 -134
-275 -219 -344 -186 -23 11 -29 20 -31 57 -4 60 37 140 132 260 42 52 76 103
76 113 0 9 -9 22 -20 28 -16 9 -29 6 -63 -15 -49 -28 -98 -33 -117 -10 -10 12
-7 21 18 52 57 73 68 117 32 128 -30 10 -63 -16 -84 -66 -45 -106 -70 -149
-131 -229 -118 -152 -126 -165 -115 -168 17 -6 43 22 143 150 l91 118 26 -25
c14 -14 34 -25 43 -25 13 0 11 -9 -14 -48 -42 -68 -79 -178 -79 -237 0 -60 27
-111 68 -126 67 -26 199 25 299 116 l58 52 -4 -44 c-4 -60 13 -96 61 -123 71
-40 182 -11 296 79 73 57 78 58 49 9 -31 -53 -34 -83 -11 -92 32 -12 43 -4 94
70 71 103 157 193 253 265 74 56 157 106 157 94 0 -2 -18 -34 -40 -69 -64
-106 -91 -165 -97 -216 -13 -107 51 -160 138 -114 17 8 63 44 103 78 l71 63
-3 -66 c-3 -55 -1 -71 16 -91 17 -21 29 -25 74 -25 68 1 132 35 227 122 39 35
71 63 71 61 0 -2 -7 -21 -15 -43 -24 -66 -20 -91 19 -115 l35 -21 60 30 c122
62 321 240 397 356 81 123 64 235 -39 260 -47 12 -50 -5 -8 -44 37 -34 41 -43
41 -85 0 -51 -24 -108 -74 -170 -61 -79 -325 -280 -343 -262 -10 9 14 80 83
244 35 85 64 160 64 167 0 20 -29 45 -51 45 -21 0 -54 -59 -108 -196 -38 -96
-70 -137 -169 -216 -92 -73 -144 -100 -185 -96 -29 3 -32 7 -35 39 -4 49 37
123 149 269 94 123 102 144 55 156 -45 11 -86 -24 -164 -141 -103 -156 -213
-262 -293 -285 -37 -11 -51 11 -39 63 10 48 47 110 142 238 43 59 78 113 78
121 0 21 -21 38 -46 38 -36 0 -159 -69 -292 -164 -68 -48 -125 -86 -128 -84
-7 8 53 94 191 279 146 194 168 229 159 253 -12 31 -48 16 -104 -41z"/>
<path d="M9420 4534 c-20 -23 -1 -66 33 -78 33 -12 80 9 85 38 9 46 -87 79
-118 40z"/>
<path d="M10209 4373 c-76 -37 -216 -179 -257 -262 -70 -141 -24 -241 111
-241 67 1 158 49 275 148 56 47 152 156 152 173 0 22 -25 4 -97 -72 -198 -208
-360 -274 -393 -162 -9 29 -8 47 2 78 13 39 14 40 70 47 62 8 156 50 231 105
172 126 96 279 -94 186z m139 -22 c24 -15 1 -64 -54 -117 -81 -77 -244 -151
-244 -109 0 25 169 189 220 213 49 24 59 26 78 13z"/>
</g>
</svg>
